<svg xmlns="http://www.w3.org/2000/svg" width="920" height="520" viewBox="0 0 920 520">
  <defs>
    <style>
      text { font-family: 'JetBrains Mono', 'Menlo', 'Monaco', 'Courier New', monospace; font-size: 12px; }
      .bg { fill: #1a1b26; }
      .fg { fill: #a9b1d6; }
      .blue { fill: #7aa2f7; }
      .purple { fill: #bb9af7; }
      .cyan { fill: #7dcfff; }
      .green { fill: #9ece6a; }
      .orange { fill: #e0af68; }
      .teal { fill: #73daca; }
      .muted { fill: #565f89; }
      .border { fill: #414868; }
      .bold { font-weight: bold; }
    </style>
    <clipPath id="left"><rect x="0" y="65" width="458" height="420"/></clipPath>
    <clipPath id="right"><rect x="462" y="65" width="458" height="420"/></clipPath>
  </defs>

  <!-- Window chrome -->
  <rect width="920" height="520" rx="10" class="bg"/>
  <rect x="0" y="0" width="920" height="30" rx="10" fill="#24283b"/>
  <rect x="0" y="20" width="920" height="10" fill="#24283b"/>
  <circle cx="20" cy="15" r="6" fill="#f7768e"/>
  <circle cx="40" cy="15" r="6" fill="#e0af68"/>
  <circle cx="60" cy="15" r="6" fill="#9ece6a"/>
  <text x="460" y="19" text-anchor="middle" class="muted" font-size="11">Claude Starter</text>

  <!-- Header -->
  <text x="15" y="55" class="blue bold">🚀 Claude Starter</text>
  <text x="195" y="55" class="border">│</text>
  <text x="210" y="55" class="green">142</text>
  <text x="235" y="55" class="muted">/142 sessions</text>
  <text x="345" y="55" class="border">│</text>
  <text x="360" y="55" class="purple">5</text>
  <text x="373" y="55" class="muted">projects</text>
  <text x="440" y="55" class="border">│</text>
  <text x="455" y="55" class="teal">↕time</text>

  <line x1="0" y1="65" x2="920" y2="65" stroke="#414868" stroke-width="1"/>
  <line x1="460" y1="65" x2="460" y2="484" stroke="#414868" stroke-width="1"/>

  <!-- ==================== LEFT PANEL (clipped) ==================== -->
  <g clip-path="url(#left)">
    <text x="15" y="85" class="green bold">✨ New Conversation</text>

    <text x="15" y="110" class="blue">web-app</text>
    <text x="120" y="110" class="orange">Today 14:32</text>
    <text x="250" y="110" class="blue">384</text>
    <text x="278" y="110" class="muted">m</text>
    <text x="295" y="110" class="fg">帮我实现一个 LRU Cache</text>

    <text x="15" y="135" class="blue">web-app</text>
    <text x="120" y="135" class="orange">Today 11:05</text>
    <text x="250" y="135" class="blue">127</text>
    <text x="278" y="135" class="muted">m</text>
    <text x="295" y="135" class="fg">Fix login redirect loop</text>

    <text x="15" y="160" class="purple">my-saas-api</text>
    <text x="120" y="160" class="orange">Today 09:48</text>
    <text x="250" y="160" class="blue"> 72</text>
    <text x="278" y="160" class="muted">m</text>
    <text x="295" y="160" class="fg">Add rate limiting</text>

    <text x="15" y="185" class="cyan">dotfiles</text>
    <text x="120" y="185" class="orange">Yesterday</text>
    <text x="250" y="185" class="blue"> 89</text>
    <text x="278" y="185" class="muted">m</text>
    <text x="295" y="185" class="fg">配置 zsh 插件和 alias</text>

    <text x="15" y="210" class="green">ml-pipeline</text>
    <text x="120" y="210" class="orange">Yesterday</text>
    <text x="250" y="210" class="blue">215</text>
    <text x="278" y="210" class="muted">m</text>
    <text x="295" y="210" class="fg">Debug data loader</text>

    <!-- Selected row -->
    <rect x="2" y="223" width="456" height="22" rx="2" fill="#3d59a1"/>
    <text x="10" y="238" fill="white" class="bold">▸</text>
    <text x="25" y="238" fill="#bb9af7" class="bold">my-saas-api</text>
    <text x="130" y="238" fill="#e0af68">2d ago</text>
    <text x="260" y="238" fill="#7aa2f7">165</text>
    <text x="288" y="238" fill="#565f89">m</text>
    <text x="305" y="238" fill="white" class="bold">重构认证，换 JWT</text>

    <text x="15" y="263" class="blue">web-app</text>
    <text x="120" y="263" class="orange">2d ago</text>
    <text x="250" y="263" class="blue"> 31</text>
    <text x="278" y="263" class="muted">m</text>
    <text x="295" y="263" class="fg">Upgrade React to v19</text>

    <text x="15" y="288" class="orange">infra-deploy</text>
    <text x="120" y="288" class="orange">3d ago</text>
    <text x="250" y="288" class="blue">443</text>
    <text x="278" y="288" class="muted">m</text>
    <text x="295" y="288" class="fg">Terraform → OpenTofu</text>

    <text x="15" y="313" class="green">ml-pipeline</text>
    <text x="120" y="313" class="orange">3d ago</text>
    <text x="250" y="313" class="blue"> 54</text>
    <text x="278" y="313" class="muted">m</text>
    <text x="295" y="313" class="fg">Optimize inference</text>

    <text x="15" y="338" class="purple">my-saas-api</text>
    <text x="120" y="338" class="orange">4d ago</text>
    <text x="250" y="338" class="blue">198</text>
    <text x="278" y="338" class="muted">m</text>
    <text x="295" y="338" class="fg">Stripe webhook</text>

    <text x="15" y="363" class="cyan">dotfiles</text>
    <text x="120" y="363" class="orange">5d ago</text>
    <text x="250" y="363" class="blue"> 15</text>
    <text x="278" y="363" class="muted">m</text>
    <text x="295" y="363" class="fg">tmux + neovim config</text>

    <text x="15" y="388" class="blue">web-app</text>
    <text x="120" y="388" class="orange">5d ago</text>
    <text x="250" y="388" class="blue">117</text>
    <text x="278" y="388" class="muted">m</text>
    <text x="295" y="388" class="fg">实现暗黑模式切换</text>

    <text x="15" y="413" class="orange">infra-deploy</text>
    <text x="120" y="413" class="orange">6d ago</text>
    <text x="250" y="413" class="blue"> 88</text>
    <text x="278" y="413" class="muted">m</text>
    <text x="295" y="413" class="fg">Fix CI/CD timeout</text>
  </g>

  <!-- ==================== RIGHT PANEL (clipped) ==================== -->
  <g clip-path="url(#right)">
    <text x="475" y="85" class="purple bold">█ my-saas-api</text>
    <line x1="475" y1="93" x2="890" y2="93" stroke="#414868" stroke-width="1"/>

    <text x="475" y="115" class="muted">Session</text>
    <text x="575" y="115" class="cyan">a1b2c3d4-e5f6-7890</text>
    <text x="475" y="135" class="muted">Started</text>
    <text x="575" y="135" class="orange">4/1/2026, 3:44 PM</text>
    <text x="475" y="155" class="muted">Last active</text>
    <text x="575" y="155" class="orange">4/1/2026, 5:21 PM</text>
    <text x="475" y="175" class="muted">Duration</text>
    <text x="575" y="175" class="green">1h 37m</text>
    <text x="475" y="195" class="muted">Messages</text>
    <text x="575" y="195" class="blue">165</text>
    <text x="475" y="215" class="muted">Branch</text>
    <text x="575" y="215" class="teal">⎇ feat/auth-refactor</text>
    <text x="475" y="235" class="muted">Directory</text>
    <text x="575" y="235" class="muted">/Users/dev/my-saas-api</text>

    <text x="475" y="265" class="cyan bold">Tools Used</text>
    <text x="475" y="285" class="border">[</text><text x="483" y="285" class="cyan">Bash</text><text x="515" y="285" class="border">]</text>
    <text x="525" y="285" class="border">[</text><text x="533" y="285" class="cyan">Read</text><text x="565" y="285" class="border">]</text>
    <text x="575" y="285" class="border">[</text><text x="583" y="285" class="cyan">Edit</text><text x="615" y="285" class="border">]</text>
    <text x="625" y="285" class="border">[</text><text x="633" y="285" class="cyan">Write</text><text x="673" y="285" class="border">]</text>
    <text x="683" y="285" class="border">[</text><text x="691" y="285" class="cyan">Glob</text><text x="723" y="285" class="border">]</text>

    <text x="475" y="315" class="purple bold">💬 Conversation</text>
    <line x1="475" y1="323" x2="890" y2="323" stroke="#414868" stroke-width="1"/>

    <text x="475" y="345" class="blue bold">You ❯</text>
    <text x="530" y="345" class="fg">重构认证模块，换成 JWT</text>
    <text x="475" y="363" class="green">Claude ❯</text>
    <text x="550" y="363" class="muted">I'll refactor the auth module</text>
    <text x="550" y="379" class="muted">to use JWT with rotation...</text>

    <text x="475" y="405" class="blue bold">You ❯</text>
    <text x="530" y="405" class="fg">refresh token 过期设多少？</text>
    <text x="475" y="423" class="green">Claude ❯</text>
    <text x="550" y="423" class="muted">7-30 days is standard.</text>
    <text x="550" y="439" class="muted">I'd recommend 14 days...</text>

    <text x="475" y="465" class="blue bold">You ❯</text>
    <text x="530" y="465" class="fg">Add tests for token rotation</text>
  </g>

  <!-- Bottom separator -->
  <line x1="0" y1="485" x2="920" y2="485" stroke="#414868" stroke-width="1"/>

  <!-- Footer -->
  <text x="15" y="507" class="blue bold">↵</text><text x="30" y="507" class="muted"> Start/Resume</text>
  <text x="125" y="507" class="border">│</text>
  <text x="137" y="507" class="blue bold">n</text><text x="149" y="507" class="muted"> New</text>
  <text x="185" y="507" class="border">│</text>
  <text x="197" y="507" class="blue bold">/</text><text x="209" y="507" class="muted"> Search</text>
  <text x="265" y="507" class="border">│</text>
  <text x="277" y="507" class="blue bold">↑/↓</text><text x="307" y="507" class="muted"> Nav</text>
  <text x="345" y="507" class="border">│</text>
  <text x="357" y="507" class="blue bold">p</text><text x="369" y="507" class="muted"> Project</text>
  <text x="430" y="507" class="border">│</text>
  <text x="442" y="507" class="blue bold">s</text><text x="454" y="507" class="muted"> Sort</text>
  <text x="495" y="507" class="border">│</text>
  <text x="507" y="507" class="blue bold">c</text><text x="519" y="507" class="muted"> Copy ID</text>
  <text x="585" y="507" class="border">│</text>
  <text x="597" y="507" class="blue bold">q</text><text x="609" y="507" class="muted"> Quit</text>
</svg>
